<svg
   xmlns="http://www.w3.org/2000/svg"
   version="1.1"
   id="svg10"
   width="375.458603571"
   height="266.340946908"
   viewBox="0 0 1280 908">
  <metadata
     id="metadata16">
  </metadata>
  <defs
     id="defs14" />

  <image
     width="1280"
     height="908"
     preserveAspectRatio="none"
     id="image18"
     x="0"
     y="0" />
  <g
     id="g20">
    <path
       style="fill:#fefefe"
       d="M 0,454 V 0 h 640 640 V 454 908 H 640 0 Z"
       id="path36"
        />
    <path
       style="fill:#c4c8d0"
       d="M 895,884.40808 C 846.5817,881.18225 809.89278,872.64156 770,855.30973 710.86685,829.61874 657.4373,784.69466 620.6881,729.76686 l -9.1881,-13.73314 -8,-2.67795 C 563.00292,699.79962 526.97507,678.55266 499.86052,652.23574 469.34539,622.61827 447.81286,584.33836 439.94166,545.71374 437.97745,536.07517 436.00997,520 436.7945,520 c 0.2171,0 3.50144,3.32665 7.29855,7.39256 3.79712,4.06591 9.94683,9.47175 13.66604,12.01297 16.00028,10.93251 34.24499,12.76121 41.04673,4.1142 C 507.053,533.03514 496.62221,514.14197 472.5,495.87231 454.30157,482.0892 444.09073,477.28513 382.5,453.52852 321.21616,429.89028 285.20348,409.96233 262.81785,387.30128 245.83447,370.10894 236.62994,357.16808 225.97285,335.5 212.76298,308.64163 205.10606,280.3877 200.09196,240 c -1.96532,-15.83031 -4.28546,-43.13983 -3.71362,-43.71167 0.15089,-0.15089 2.46648,4.74041 5.14576,10.86954 18.95146,43.35342 50.24933,79.58616 84.89799,98.28423 9.96733,5.37884 27.48203,11.83868 40.9364,15.0983 12.84069,3.11095 26.42656,3.37908 31.65711,0.62479 6.20463,-3.26721 8.85923,-12.18278 5.38074,-18.07139 C 362.05449,299.12937 356.3819,295.98371 339,289.01056 305.59321,275.60867 290.11958,265.58694 274.31136,247.11402 260.77995,231.30169 245.40851,204.33635 232.06309,173 210.0745,121.36866 185.76076,90.456603 147.60863,65.626111 133.23708,56.272698 109.1286,45.329396 90.75936,39.821134 86.502008,38.54451 83.014508,37.21875 83.00936,36.875 83.00426,36.53125 84.2375,35.983306 85.75,35.657346 c 1.5125,-0.32596 8.09884,-1.744852 14.63631,-3.153092 28.22882,-6.080786 55.24883,-8.863945 86.11369,-8.870023 61.77024,-0.01216 114.80715,14.23121 160.92638,43.217718 24.07424,15.130954 39.84209,29.134811 75.96257,67.464411 21.08403,22.37352 41.54731,38.6691 58.02364,46.20612 11.53319,5.27581 19.46771,6.91748 33.58741,6.94933 11.37832,0.0257 12.94401,-0.19615 17.44803,-2.47181 9.89414,-4.99904 11.60308,-12.36001 5.66831,-24.41525 -4.04836,-8.22339 -16.70407,-21.82749 -26.14393,-28.10309 C 491.75788,119.04306 461.84969,109.45994 428.5,105.73559 l -12,-1.34011 4.5,-2.87762 c 12.7247,-8.137058 36.14737,-17.704357 55.34208,-22.605202 28.49593,-7.275655 66.39876,-7.87996 93.65792,-1.493238 28.88647,6.767996 51.21408,19.971948 95.5,56.47615 25.60106,21.10256 30.93153,25.21364 39.94658,30.80849 18.34889,11.38755 29.68007,14.67799 48.59419,14.11119 11.28488,-0.33818 13.11416,-0.65635 18.26653,-3.17717 6.78686,-3.3205 9.05714,-6.86119 9.09511,-14.18457 0.0601,-11.59616 -10.96707,-21.5587 -28.8288,-26.04542 -3.65513,-0.91814 -6.46668,-1.84835 -6.2479,-2.06714 1.25709,-1.25708 22.47399,-4.46502 36.41071,-5.5052 25.85157,-1.92946 53.97479,0.94916 79.54035,8.14154 32.96324,9.27357 62.71526,25.62855 90.152,49.55743 l 7.12087,6.21044 10.47518,1.75132 c 55.70118,9.31253 112.14978,34.80476 157.47518,71.11592 13.9901,11.20781 42.8129,39.88167 53.1622,52.8876 42.1806,53.00794 66.0981,109.50488 74.9316,177 2.1742,16.61287 2.8926,50.38508 1.4571,68.5 -8.2181,103.70479 -60.4901,196.21296 -145.2846,257.11705 -48.5437,34.86674 -107.6033,57.03819 -167.2663,62.79315 -12.31701,1.18808 -41.08418,2.05857 -49.5,1.49788 z m 41,-45.45871 c 87.9461,-7.98245 166.1134,-51.64544 218.8199,-122.22923 30.3626,-40.66126 49.1838,-86.4398 57.4388,-139.70759 2.9067,-18.75626 3.1271,-62.21206 0.4135,-81.51255 -9.9413,-70.70747 -40.0155,-130.49925 -90.3172,-179.56338 -46.237,-45.09954 -103.9173,-73.52205 -168.77176,-83.16395 -12.90075,-1.91795 -19.20709,-2.24243 -43.58324,-2.24243 -24.37615,0 -30.68249,0.32448 -43.58324,2.24243 C 812.08438,240.85025 762.74221,262.14473 720,295.96139 707.08661,306.17817 681.97376,331.21584 671.81715,344 c -30.88158,38.87077 -51.37425,82.66656 -60.8075,129.95443 -4.62201,23.16962 -5.51217,33.2471 -5.48058,62.04557 0.0337,30.75388 1.85699,46.21922 8.66515,73.5 13.46132,53.94046 40.24986,101.01174 80.26793,141.04219 40.05006,40.06244 87.71963,67.12116 141.53785,80.34123 14.80667,3.63716 37.84737,7.52216 50,8.43073 10.7454,0.80336 39.43618,0.59404 50,-0.36478 z m -51.5,-25.64194 c -53.95619,-4.80699 -107.41252,-26.70817 -151,-61.86506 -11.28762,-9.10438 -32.1379,-30.1145 -41.6233,-41.94237 -30.66806,-38.2417 -50.34425,-83.58722 -58.57879,-135 -2.5407,-15.86297 -2.55133,-63.3384 -0.0177,-79 9.48258,-58.61627 32.16494,-106.61681 70.40905,-149 35.06067,-38.85522 85.12733,-69.08587 135.79434,-81.99373 25.17887,-6.41453 43.9967,-8.72624 71.0164,-8.72414 88.8834,0.007 170.0711,40.85149 223.6642,112.5228 30.3504,40.58842 48.4558,87.46867 53.9143,139.60085 1.496,14.28762 0.6409,52.91402 -1.481,66.89777 -5.2591,34.65944 -17.0677,69.0377 -33.5906,97.79193 -13.2428,23.04616 -25.6713,39.34435 -44.8146,58.76805 -44.7225,45.3775 -102.9836,73.8011 -166.1923,81.07953 -12.27234,1.41315 -45.69989,1.91565 -57.5,0.86437 z M 944.01363,630.5 c 18.19728,-79.75 33.53091,-146.6875 34.07472,-148.75 l 0.98874,-3.75 h 40.78341 40.7833 l 13.3777,24.15112 c 7.3578,13.28311 13.5842,23.52061 13.8365,22.75 0.2524,-0.77062 6.6875,-19.09485 14.3004,-40.72053 C 1109.7713,462.55492 1116,444.44242 1116,443.93059 1116,443.36249 1075.8784,443 1013,443 H 910 l 0.0789,167.25 c 0.0434,91.9875 0.25214,166.8 0.46382,166.25 0.21169,-0.55 15.27357,-66.25 33.47086,-146 z M 745.60503,501.75 758.65188,478.5 801.07594,478 843.5,477.5 l 30.86027,-17 30.86027,-17 -100.77213,-0.25481 c -55.42467,-0.14014 -100.95291,-0.074 -101.17386,0.14692 -0.51786,0.51787 28.05276,81.60074 28.75454,81.60482 0.291,0.002 6.40017,-10.45943 13.57594,-23.24693 z"
       id="path34"
        />
    <path
       style="fill:#9db2cf"
       d="m 881.5,883.3506 c -1.65,-0.19235 -7.275,-0.82357 -12.5,-1.4027 C 804.54494,874.80377 740.68146,847.62838 689.61454,805.61525 662.74599,783.5103 641.25701,759.81169 621.04957,730 l -9.82863,-14.5 -9.86047,-3.31363 C 542.24364,692.32002 494.88926,656.71376 466.32348,610.65062 450.82363,585.65668 439.51946,553.27696 437.35519,527.67371 l -0.62806,-7.42996 9.96521,9.74484 c 8.09138,7.91245 11.60243,10.55612 18.67207,14.05926 7.70499,3.81797 9.65207,4.35808 16.92123,4.69385 9.63267,0.44495 13.75903,-1.14165 17.53354,-6.7417 3.03273,-4.49949 2.60452,-10.53968 -1.32393,-18.67512 -4.03756,-8.36138 -19.97349,-23.97576 -33.91637,-33.23202 -14.50271,-9.62792 -27.58981,-15.76468 -60.59312,-28.4131 C 365.39619,446.89042 347.39921,439.30917 325.5,428.61755 295.8528,414.14321 279.8027,403.66153 264.15536,388.5558 225.32638,351.07083 204.44409,297.64132 198.08192,219.5 c -2.03581,-25.00408 -2.04262,-24.94755 1.86744,-15.5 11.31787,27.34644 29.96319,55.03244 50.18788,74.52282 22.90592,22.07426 43.94933,33.63768 76.70139,42.14766 12.29342,3.19421 26.95643,3.64652 31.95559,0.98575 6.45492,-3.43559 9.09901,-12.09444 5.70021,-18.667 -2.04413,-3.95292 -7.18669,-6.77195 -27.11528,-14.86397 C 317.2269,279.94242 309.89828,276.33891 300.46133,269.97263 273.09313,251.50971 254.89779,225.31623 231.01521,170 216.22976,135.75432 203.72212,116.0422 183.51536,95.139895 166.77941,77.827869 150.34301,65.730126 129,55.014759 118.68457,49.835847 91.717347,39 89.143988,39 88.586404,39 86.863404,38.493941 85.3151,37.875424 82.532306,36.763753 82.563117,36.735485 88,35.412227 c 12.16554,-2.960916 32.00716,-6.551366 46.45811,-8.406849 72.29869,-9.283052 137.05635,0.288983 192.31756,28.427067 32.47876,16.537642 57.64252,36.583065 87.08395,69.370995 16.42761,18.29487 28.51348,29.58018 44.73164,41.76865 19.7162,14.81735 33.16691,20.19008 52.95409,21.15191 13.45287,0.65393 20.65226,-1.04419 26.2708,-6.19648 3.45893,-3.17189 3.67992,-3.73377 3.61951,-9.20283 C 541.25693,156.14305 520.92907,134.51247 494.64338,122.5337 475.82345,113.95718 438.77536,105 422.12166,105 419.85475,105 418,104.62079 418,104.15731 c 0,-1.41317 18.32349,-11.091076 29.73764,-15.706513 52.07104,-21.055494 112.18653,-20.643438 155.29261,1.064439 15.34166,7.725935 38.41983,24.686074 77.46975,56.932494 32.15245,26.55066 53.90199,35.59651 78.41956,32.61546 16.63206,-2.02226 22.57611,-6.68903 22.57889,-17.72705 10e-4,-5.2539 -0.44756,-6.80286 -3.04061,-10.49232 -4.43739,-6.31364 -12.48055,-11.48007 -22.92877,-14.72804 l -9.01008,-2.80091 4.99051,-1.1281 c 31.09213,-7.02841 71.15971,-6.13569 104.55475,2.32952 35.20974,8.92521 65.28338,24.78129 94.93575,50.0541 l 8.5,7.24458 12,2.14331 c 57.9092,10.3431 110.2837,34.35722 157.7255,72.31842 14.3919,11.51584 40.5496,37.85784 52.5194,52.8894 74.2489,93.24127 95.7185,215.75799 57.7328,329.45456 -25.5876,76.58735 -81.075,144.9634 -151.7302,186.97424 -43.5114,25.87137 -90.69524,41.53362 -141.30171,46.90381 -12.52667,1.32929 -55.96333,1.89905 -64.94579,0.85189 z m 62.00613,-44.8522 c 58.14787,-6.71967 111.79677,-28.99708 156.95397,-65.17429 60.2112,-48.2375 99.8797,-116.86503 111.6096,-193.08752 3.0312,-19.69773 3.7716,-58.33602 1.4991,-78.23659 -8.039,-70.3989 -37.5988,-132.48599 -86.6563,-182.01196 C 1065.1044,257.58963 982.19481,225.61842 893.75,230.07698 784.18288,235.60032 686.31744,299.63844 637.12377,398 c -17.16717,34.32533 -27.42236,69.55865 -31.10207,106.85595 -1.52547,15.46218 -1.25233,48.61129 0.52853,64.14405 6.58544,57.43833 28.61647,110.80162 64.4046,156 10.55349,13.32846 35.44617,38.20635 48.91709,48.88802 44.97105,35.6595 97.83637,57.69959 154.62808,64.46602 16.42392,1.95682 52.66614,2.03264 69.00613,0.14436 z M 886.5,813.31473 C 840.79096,809.32584 795.3326,793.45393 756.55765,767.945 740.40747,757.32025 730.67538,749.53218 716.63869,736 670.32615,691.35203 641.99584,635.23074 632.84105,570 c -1.78393,-12.71105 -1.78237,-57.30591 0.002,-70 8.9085,-63.3596 35.04889,-116.96819 78.4338,-160.85166 15.19294,-15.36753 27.49707,-25.55688 44.4942,-36.84674 37.46263,-24.88348 78.0051,-39.63954 123.2285,-44.85093 17.92814,-2.06597 55.84796,-1.53761 71.5,0.99625 57.20825,9.26126 107.08635,32.93155 147.11795,69.81661 50.1648,46.22175 79.8799,103.21351 89.5425,171.73647 2.0612,14.6175 1.7746,58.46916 -0.4771,73 -5.0798,32.78061 -13.0018,58.2241 -26.7755,85.99724 -20.3377,41.00841 -50.7041,76.53549 -88.538,103.58485 -39.4437,28.20012 -85.79978,45.47347 -135.2258,50.38816 -9.54543,0.94915 -40.27182,1.16236 -49.64405,0.34448 z M 944.51429,629 c 18.4873,-81.125 33.83989,-148.2875 34.11688,-149.25 0.46909,-1.63006 3.29184,-1.74896 41.18623,-1.7348 l 40.6826,0.0152 12.5,22.62333 c 6.875,12.44283 12.9662,23.26637 13.5359,24.0523 0.7792,1.0747 4.428,-8.19455 14.718,-37.38853 7.5251,-21.34963 15.7138,-44.555 18.1972,-51.5675 L 1123.9664,423 H 909.65035 695.33433 l 18.08284,51.42024 c 10.59025,30.1144 18.45565,51.05976 18.9826,50.55023 0.49487,-0.4785 6.64571,-11.13011 13.66853,-23.67024 L 758.83707,478.5 800.41853,478.23903 C 823.28834,478.09549 842,478.22566 842,478.52829 c 0,0.76526 66.98328,295.50507 67.71777,297.97171 0.32755,1.1 0.72778,1.55 0.8894,1 0.16163,-0.55 15.41983,-67.375 33.90712,-148.5 z"
       id="path32"
        />
    <path
       style="fill:#638dca"
       d="m 883,883.38516 c -1.925,-0.23011 -9.21891,-1.08592 -16.20869,-1.90181 -74.58832,-8.70634 -146.11389,-43.46203 -200.89667,-97.61966 -18.90169,-18.686 -33.62368,-36.74995 -49.5078,-60.7463 l -4.88684,-7.38261 -12,-4.2497 C 518.62737,682.84468 464.08597,629.60506 443.79869,559.5 440.71018,548.82727 437,529.07553 437,523.30601 v -3.49524 l 3.41553,4.08813 c 16.81381,20.12481 41.18819,30.5135 54.29825,23.14264 20.97137,-11.79072 -5.35617,-46.9156 -52.11729,-69.53229 C 435.39342,474.02538 419.825,467.49316 408,462.9932 361.48178,445.29087 338.74425,435.64231 317.3632,424.5319 289.23173,409.91371 272.71516,398.13486 258.04885,382.23163 229.56674,351.34741 212.45399,313.42643 203.4865,261.32426 c -2.70916,-15.74051 -6.49661,-50.01496 -6.47016,-58.55144 l 0.0163,-5.27282 4.33659,10 c 11.47635,26.46402 28.02364,50.77292 47.77971,70.19109 10.46787,10.28883 14.23198,13.42437 24.35896,20.29125 20.56824,13.94686 52.90229,25.28356 72.49206,25.41657 14.15685,0.0961 19.07042,-3.17844 19.78659,-13.18638 0.68988,-9.64069 -2.2183,-11.82578 -30.95246,-23.25639 -24.98704,-9.93998 -36.86238,-17.10788 -51.21305,-30.91195 C 264.75172,237.89352 250.81257,215.23576 232.53196,173 216.15119,135.15367 201.28379,112.01559 179.66558,90.724279 157.46187,68.856331 128.69993,51.870727 95.5,41.019592 86.922791,38.216199 81.956932,36 84.25255,36 c 0.358903,0 8.436403,-1.564882 17.95,-3.477515 28.86108,-5.802291 45.2906,-7.604401 74.99768,-8.226298 37.7978,-0.791271 60.6336,1.58919 91.9355,9.583586 19.10747,4.879981 34.55639,10.487966 51.36427,18.645326 35.56684,17.261634 61.80202,37.478157 91.45596,70.474901 31.75838,35.33841 57.62804,55.24266 80.77819,62.15118 9.67032,2.88584 28.9576,3.66176 36.50224,1.46848 13.55001,-3.9391 16.24601,-14.61871 7.46533,-29.57219 -4.74652,-8.08332 -18.8683,-21.70616 -28.35171,-27.35 -20.41513,-12.14963 -47.79368,-20.60393 -77.91929,-24.06092 -6.29217,-0.72204 -11.66004,-1.53254 -11.92861,-1.80111 -0.59765,-0.59764 15.2492,-9.095302 25.49789,-13.672905 35.82092,-15.999506 82.00311,-21.192286 120.5,-13.54916 33.22123,6.595704 53.02786,18.25396 108.41142,63.811365 21.33503,17.54978 30.22227,23.89239 42.00461,29.97773 15.2747,7.88908 31.43523,10.93443 46.08397,8.68426 13.51162,-2.07551 19.75536,-6.73671 20.74134,-15.48423 1.38547,-12.29186 -8.77533,-22.61944 -27.71881,-28.17381 l -7.47746,-2.19245 5.47746,-1.1222 c 28.91228,-5.92339 67.92647,-5.5384 97.40847,0.96124 37.00657,8.15851 70.4966,25.08599 100.52566,50.81054 6.68662,5.72812 10.49458,8.27488 13,8.69438 64.52894,10.80461 116.64064,34.09295 167.49674,74.85301 22.9457,18.39041 51.5531,49.95963 68.9662,76.10646 68.9127,103.47632 77.3308,236.90599 21.941,347.77318 -17.2734,34.57416 -37.9658,63.28658 -65.3606,90.69348 -55.1251,55.14932 -122.2,88.29345 -201.5,99.56836 -10.52947,1.49709 -63.00571,2.82585 -71.5,1.81047 z m 63.26279,-44.94875 c 23.39084,-2.87848 48.61043,-8.95089 70.41041,-16.95351 24.1715,-8.87321 58.3782,-28.06074 80.8268,-45.33811 26.137,-20.11608 53.9634,-51.10068 72.4248,-80.64479 32.5819,-52.14127 49.352,-118.65972 45.1279,-179 -2.4782,-35.40216 -8.5873,-63.03758 -20.7796,-94 -23.2503,-59.0443 -64.1288,-108.85269 -118.7731,-144.71903 -13.4739,-8.84371 -43.1109,-23.86351 -57.5,-29.14048 -92.30279,-33.85063 -193.95026,-22.90798 -274,29.49692 -77.1063,50.47796 -126.40776,129.62403 -137.63269,220.94858 -2.00312,16.2971 -2.251,52.74337 -0.46189,67.91401 8.5078,72.14157 38.13447,134.00216 88.11345,183.98113 53.78077,53.78077 121.32214,83.97919 199.98113,89.41357 9.99414,0.69047 39.82033,-0.42712 52.26279,-1.95829 z M 884.07522,812.96023 C 818.78435,806.66324 759.10801,778.36808 712.44978,731.58511 697.21882,716.31343 689.04389,706.33778 677.34431,688.74686 653.68992,653.18127 639.08543,613.86338 632.86475,569 c -2.00863,-14.48623 -1.73209,-56.49266 0.47071,-71.5 9.49414,-64.68209 37.3111,-119.05356 83.99585,-164.17961 C 780.68582,272.08113 869.55852,245.01859 958,260.0346 c 86.0859,14.61606 161.9152,71.03561 201.4658,149.89724 18.2432,36.37589 27.8216,74.27303 29.2096,115.56816 2.206,65.63462 -17.9216,127.94369 -58.3032,180.48845 -11.3563,14.777 -34.6158,38.01951 -49.5549,49.51885 -39.306,30.25575 -82.76584,48.53473 -133.3173,56.07261 -12.09777,1.80394 -50.39139,2.63732 -63.42478,1.38032 z m 93.44505,-327.72139 1.62112,-7.26116 40.67931,0.26116 40.6793,0.26116 11.6956,21 c 14.505,26.04437 14.9076,26.73012 15.4032,26.23454 0.2222,-0.22216 7.7864,-21.29082 16.8094,-46.81924 9.0231,-25.52841 17.1225,-48.38438 17.9987,-50.79103 0.8762,-2.40665 1.5931,-4.54415 1.5931,-4.75 C 1124,423.16842 1027.4816,423 909.51458,423 H 695.02916 l 3.49839,9.75 c 1.92411,5.3625 10.13005,28.53579 18.23542,51.49619 8.10537,22.96041 14.96203,41.73809 15.23703,41.72817 0.275,-0.01 6.51931,-10.8082 13.87624,-23.99619 L 759.25248,478 h 40.81474 c 22.44811,0 41.04535,0.37313 41.32721,0.82918 0.28185,0.45605 15.6364,67.39355 34.12122,148.75 18.48482,81.35645 33.87086,148.81784 34.19119,149.91419 0.42909,1.46857 48.23003,-204.53846 67.81343,-292.25453 z"
       id="path30"
        />
    <path
       style="fill:#4e72a3"
       d="M 879,882.90121 C 843.64436,879.83549 804.33469,869.7927 771,855.30951 709.72174,828.68545 655.08601,782.40339 618.77509,726.35942 613.52108,718.25014 610.80548,714.95938 609,714.51397 601.03227,712.54835 576.35171,702.53759 563,695.85578 521.76497,675.21986 491.31806,648.73855 468.51893,613.68052 452.30666,588.75105 440.23485,555.2832 437.43372,527.5 l -0.70575,-7 7.89356,8 c 4.34146,4.4 10.46413,9.70257 13.60595,11.7835 16.86637,11.17113 35.61607,12.17784 41.75676,2.242 5.15032,-8.3334 0.26426,-21.05252 -13.33517,-34.71339 C 468.90713,489.99004 445.92509,477.11276 403,460.94195 341.28942,437.69423 304.3215,419.9619 279.9877,401.9369 245.85943,376.65675 220.80505,335.89208 208.56058,285.72155 c -4.94394,-20.25729 -9.32831,-50.64667 -11.141,-77.22155 -0.37516,-5.5 -0.45765,-9.775 -0.18331,-9.5 0.27434,0.275 2.37909,4.775 4.67721,10 18.13157,41.22374 48.57724,76.68135 81.93012,95.41739 22.85516,12.83893 57.36432,21.89128 70.99125,18.62223 C 362.29835,321.24915 366,316.77418 366,309.54193 366,300.19476 363.36461,298.30304 333.86942,286.4781 307.74921,276.00623 294.46524,267.51539 279.16774,251.51393 263.48711,235.11171 249.55805,211.77728 233.49415,175 218.39028,140.42067 207.45226,121.90369 190.5469,102.29462 166.80986,74.761276 136.93055,55.227751 98.344437,42.017481 91.829997,39.78721 85.825,37.691043 85,37.359332 c -2.87519,-1.156037 26.31632,-7.107758 51,-10.398152 19.89981,-2.652692 59.91948,-3.686731 79.39617,-2.051459 61.39817,5.155016 113.93565,25.499365 158.60383,61.41695 13.00053,10.453693 26.08082,23.231549 41.16145,40.209729 13.21848,14.88171 22.07935,23.36547 36.33855,34.79197 25.93188,20.78032 41.86447,27.21881 65.60442,26.51126 9.55355,-0.28473 12.17919,-0.7254 16.24329,-2.72614 11.01679,-5.42351 11.58283,-15.57417 1.69304,-30.36063 -8.876,-13.27072 -21.21849,-23.21561 -39.44656,-31.78384 C 477.94653,114.67362 454.987,108.42992 433,105.94694 c -17.01384,-1.92137 -16.92716,-1.58146 -2.32645,-9.123094 21.01602,-10.855307 42.2333,-17.794467 65.74394,-21.501697 14.88792,-2.347573 47.13139,-2.364362 60.58251,-0.03154 38.13296,6.613373 56.96482,16.994915 111.16106,61.280381 12.83642,10.48904 26.96827,21.60573 31.40412,24.70374 9.51381,6.64447 24.50652,14.0456 32.93482,16.25822 9.36373,2.45819 22.76933,2.9281 31.35186,1.099 12.57213,-2.67937 17.16214,-6.75567 17.92179,-15.91596 0.99009,-11.93918 -9.01732,-21.79399 -27.69272,-27.27046 l -7.41908,-2.17561 9.07883,-1.66846 c 21.77103,-4.00096 50.71513,-4.83129 71.9581,-2.0643 47.82269,6.22914 92.10644,26.39081 125.14034,56.97438 l 5.93428,5.4941 11.53505,2.00301 c 107.83885,18.72581 201.38955,88.48165 250.62835,186.88025 38.7615,77.46068 47.156,166.82773 23.5408,250.6111 -23.3736,82.92611 -77.2915,154.35327 -151.4776,200.6684 -45.5839,28.45849 -98.97077,46.12127 -153.5,50.7847 -13.82132,1.18203 -46.59393,1.15392 -60.5,-0.0519 z m 68.47038,-29.417 C 1045.2084,842.05117 1131.3459,786.91296 1183.6434,702.30543 1208.2062,662.5674 1223.6938,616.81698 1229.109,568 c 1.8568,-16.73832 1.6053,-52.4268 -0.4928,-69.9245 -7.2997,-60.88053 -30.0276,-115.59501 -67.8775,-163.40657 -9.2501,-11.68468 -36.6893,-39.44706 -47.7387,-48.30107 -46.9489,-37.62064 -98.5107,-60.32112 -156.35679,-68.83734 l -10.85679,-1.59836 -8.64321,-7.73135 C 904.07755,178.62361 865.50413,160.2702 830.21684,157.32476 l -7.71684,-0.64413 3.26961,2.76508 c 1.79829,1.5208 4.49829,4.85515 6,7.40969 3.77795,6.42658 3.79711,15.44692 0.0481,22.6446 -8.22418,15.7895 -30.20945,27.15195 -60.20558,31.11552 -14.61726,1.93147 -44.58729,1.38747 -60.11212,-1.09112 -22.64062,-3.61465 -43.48213,-10.04299 -63.12302,-19.46963 -21.68029,-10.40544 -35.6507,-21.04834 -52.67287,-40.12712 -9.03558,-10.12726 -21.23018,-20.94918 -31.24815,-27.73072 -6.84933,-4.63657 -21.45354,-11.72601 -25.95596,-12.60001 l -3,-0.58236 2.45367,1.74272 c 16.69085,11.85466 23.72278,21.75985 38.76054,54.59813 14.74036,32.18884 20.57134,41.00834 35.24274,53.30545 7.81374,6.54924 22.52567,14.74397 32.57362,18.14393 13.75156,4.65315 22.17226,6.28909 47.25741,9.18096 20.27338,2.33717 29.04491,9.70157 23.75028,19.94026 -2.42568,4.69075 -13.79871,14.3099 -22.20647,18.78193 C 666.15595,309.16258 641.75788,302.91982 610,273.38573 585.56086,250.65791 566.95179,241.4461 535.17687,236.34697 526.0891,234.88859 519.1419,234.69805 488.5,235.06679 c -80.10714,0.96398 -99.06905,0.0638 -127.0541,-6.03162 -32.49108,-7.07688 -51.17411,-17.45675 -73.66254,-40.92524 -11.38602,-11.88223 -21.29061,-24.56928 -29.86608,-38.25623 -2.9795,-4.75546 -5.94506,-9.48046 -6.59012,-10.5 -1.6281,-2.57325 1.80482,8.48132 5.96884,19.22062 15.14945,39.07155 37.69346,70.07368 66.51961,91.47659 20.48059,15.20649 39.02091,22.98462 70.18439,29.44413 53.52517,11.09459 95.64885,25.03994 120.74298,39.97283 23.77628,14.14869 46.37778,36.51262 59.42005,58.7955 5.76626,9.85172 12.02296,24.28939 15.71937,36.27332 4.57214,14.82303 6.33265,26.82564 5.94778,40.5501 -0.36892,13.15602 -1.97698,17.10947 -7.21278,17.73288 -4.00747,0.47717 -7.5562,-4.0006 -13.08375,-16.50897 -13.42161,-30.37201 -23.89957,-46.91764 -38.12476,-60.2024 -16.97028,-15.84837 -42.05679,-28.80184 -67.19077,-34.69409 -16.95148,-3.97399 -25.42954,-4.61464 -72.21812,-5.4572 -25.575,-0.46054 -49.64304,-1.28374 -53.48453,-1.82932 -3.84149,-0.54558 -7.13241,-0.84409 -7.31316,-0.66334 -0.81616,0.81617 20.54722,7.06469 44.43283,12.99605 29.37984,7.29571 43.35877,11.9625 59.67184,19.92113 42.56212,20.76471 75.51109,55.15821 99.74548,104.11847 23.18413,46.83845 24.88234,82.83872 4.68913,99.4045 -1.61206,1.32247 -5.7009,3.55838 -9.08631,4.96869 -9.84832,4.10265 -28.81307,3.49705 -46.45591,-1.48347 -2.23763,-0.63168 -2.21417,-0.50215 0.85691,4.73041 19.0972,32.53815 54.33962,62.15988 95.0402,79.88257 10.47135,4.55965 30.44089,11.44308 40.5675,13.98347 3.8176,0.9577 4.56545,1.7294 8.99041,9.27718 18.58082,31.69383 51.12479,67.54975 82.10505,90.46073 17.63755,13.04358 30.50515,20.94662 49.74056,30.54971 39.17056,19.55553 76.35982,29.33431 126,33.13124 9.38638,0.71795 41.04411,-0.40876 53.97038,-1.92082 z m -61.73909,-40.4688 C 801.34027,804.81909 727.69874,761.73195 679.75476,692.5 656.4628,658.866 640.51131,617.98254 633.86813,574.89318 630.9057,555.67811 630.64407,516.89471 633.35278,498.5 c 4.96033,-33.68543 12.43579,-58.09085 26.64838,-87 23.23159,-47.25426 60.49074,-88.0891 104.8725,-114.93693 32.44157,-19.62485 65.93247,-31.71672 104.62634,-37.77527 11.75626,-1.84076 18.24708,-2.19656 40.5,-2.22003 29.19075,-0.0308 42.32221,1.42733 66.61884,7.39741 79.93526,19.64143 147.04966,73.63697 183.37996,147.53482 14.3541,29.19694 21.5699,52.77368 26.6492,87.07244 2.7088,18.29226 2.4464,57.10527 -0.5161,76.32074 -12.2811,79.65831 -55.0482,147.39899 -121.1319,191.86602 -34.1047,22.94868 -73.10432,38.00347 -114.59322,44.2357 -15.72644,2.36234 -50.09952,3.43618 -64.67549,2.02051 z M 944.50367,630 c 18.47581,-81.125 34.01346,-148.51761 34.5281,-149.76136 l 0.9357,-2.26136 40.24603,0.26136 40.246,0.26136 12.5299,22.5 c 6.8914,12.375 12.9872,23.27627 13.546,24.22505 0.8023,1.3619 2.8802,-3.58528 9.8707,-23.5 4.8699,-13.87378 13.0708,-37.06288 18.2242,-51.53135 5.1533,-14.46846 9.3697,-26.50596 9.3697,-26.75 0,-0.24403 -96.5731,-0.4437 -214.60699,-0.4437 -203.98294,0 -214.57294,0.0866 -213.91925,1.75 0.94598,2.40714 19.70279,55.1824 28.61043,80.5 4.01532,11.4125 7.55151,20.74862 7.8582,20.74693 0.30668,-0.002 6.59919,-10.80169 13.98335,-24 L 759.35149,478 h 40.76524 c 22.42088,0 40.9706,0.3375 41.22161,0.75 0.25101,0.4125 15.59534,67.35 34.09852,148.75 34.96308,153.81116 34.688,152.63029 35.17543,151 0.16444,-0.55 15.41556,-67.375 33.89138,-148.5 z"
       id="path28"
        />
    <path
       style="fill:#2e578e"
       d="m 886.5,883.40113 c -16.66847,-1.66963 -25.2083,-2.6985 -33,-3.97579 -94.96629,-15.5679 -178.41141,-69.50325 -232.71748,-150.41862 l -9.05597,-13.49329 -11.61328,-4.10369 C 525.14566,684.91905 474.46227,639.34173 449.53344,576 c -5.80099,-14.73976 -12.49397,-43.1989 -12.52754,-53.26819 -0.004,-1.16291 2.67898,0.94937 7.83732,6.17047 13.74699,13.91429 26.04996,20.35257 39.15678,20.49119 8.71347,0.0922 12.9924,-1.693 16.04048,-6.69202 C 510.65019,525.30096 479.07696,492.34855 433,472.73251 427.225,470.27395 415.075,465.46217 406,462.03966 325.26616,431.592 287.53083,411.72705 262.45936,386.47581 224.93713,348.68454 205.51589,298.21872 198.53582,220.37137 c -2.09619,-23.3783 -2.13341,-23.21796 2.83328,-12.20462 17.74902,39.35743 42.53335,70.17407 72.68678,90.37819 28.56994,19.14311 72.96621,30.78487 86.20256,22.60436 5.22994,-3.23229 7.7022,-10.91439 5.33543,-16.57888 -2.14522,-5.13423 -7.89692,-8.68046 -25.34853,-15.6287 -28.59126,-11.38343 -42.05635,-19.19773 -56.4191,-32.74213 C 265.29118,238.72061 250.42185,214.02598 230.08583,166.9488 210.60117,121.84251 186.22898,91.061651 151.62438,67.85591 133.94865,56.00262 110.69128,45.012645 91.251386,39.327417 c -3.436738,-1.005079 -6.249238,-2.098562 -6.25,-2.429962 -0.0022,-0.943617 29.002384,-6.718196 44.498614,-8.859325 24.17268,-3.339962 42.4565,-4.361642 66.5,-3.715947 49.65609,1.333528 90.4911,11.12559 129.8434,31.135898 34.75129,17.670734 55.07918,34.298856 97.1324,79.453859 22.56407,24.22835 47.71036,43.07867 65.206,48.88012 17.65014,5.85267 35.82529,6.30594 45.94022,1.14569 20.94592,-10.68581 -2.69188,-46.77416 -41.75315,-63.74546 -16.67783,-7.24617 -38.26477,-12.84503 -60.29671,-15.63874 -6.83531,-0.86674 -12.60678,-1.75484 -12.8255,-1.97356 -0.54509,-0.54508 10.67656,-6.750594 19.98237,-11.050142 C 492.08145,68.110527 557.08681,66.905379 602,89.512202 c 16.71469,8.413252 33.26773,20.302948 68.83774,49.444708 24.72606,20.25752 34.63696,27.29348 46.40072,32.94081 10.49417,5.03786 17.95453,7.01846 29.26378,7.76907 16.32724,1.08366 28.37311,-2.39028 33.21819,-9.5799 2.74726,-4.07665 3.06732,-11.62458 0.70411,-16.60468 -3.68826,-7.77241 -14.25442,-15.07589 -26.76534,-18.50057 l -6.15041,-1.68359 8.9956,-1.63948 c 23.0742,-4.20537 55.94214,-4.70388 77.99561,-1.18297 44.86108,7.16222 85.37939,26.48488 119.2878,56.88682 4.01611,3.6008 7.17178,5.63758 8.73455,5.63758 1.34572,0 9.20685,1.36385 17.46919,3.03077 135.11266,27.25895 243.03156,135.03675 270.35466,270.00098 9.1498,45.19629 9.2009,95.54664 0.1422,140.02524 -3.3264,16.33259 -4.855,22.04794 -10.5977,39.62407 -20.7658,63.55655 -60.1192,119.88664 -113.8907,163.02253 -44.6995,35.8582 -99.5346,60.44542 -156.83835,70.32381 -17.32681,2.98691 -30.64429,4.08238 -53.66165,4.41411 -13.75,0.19816 -26.8,0.17999 -29,-0.0404 z M 950,853.51197 c 62.1144,-8.4673 114.3733,-30.86322 163,-69.85476 11.4148,-9.15301 40.5088,-38.85426 49.6216,-50.65721 36.8206,-47.69061 57.8024,-98.09741 65.9753,-158.5 2.2274,-16.46117 2.5437,-58.74977 0.561,-75 -12.0216,-98.52994 -63.6275,-181.49202 -146.2456,-235.10543 -37.181,-24.12784 -84.80678,-41.71036 -128.53147,-47.45129 l -8.88083,-1.16603 -6,-5.7026 c -31.14985,-29.60586 -74.18667,-50.44708 -109,-52.78486 l -8,-0.53722 4.17454,4.2048 c 5.57436,5.61478 7.72456,10.33963 7.76166,17.05557 0.0431,7.79845 -3.89456,15.42415 -11.53455,22.33794 -10.30463,9.32516 -25.66726,15.85777 -45.44448,19.32423 -15.08601,2.64421 -49.69781,2.40529 -66.48728,-0.45896 C 676.79572,213.38611 647.50738,202.20613 624.5,186.20876 619.5559,182.77105 608.66926,172.76778 596,160.02131 580.98901,144.91884 573.01108,137.71373 566.20453,133.11211 556.31933,126.42915 544.76109,120.66352 539,119.54157 l -3.5,-0.6816 3.5,2.73196 c 7.69386,6.00552 19.87452,19.29837 23.87345,26.05329 2.32649,3.92988 8.45153,16.32075 13.61119,27.53527 13.77841,29.94735 18.25684,37.41713 28.54277,47.60778 19.02871,18.85244 43.50285,28.75745 80.77556,32.69094 7.56371,0.79822 16.16379,2.23016 19.11129,3.18209 6.58617,2.1271 12.08574,7.01731 12.08574,10.74662 0,9.10417 -14.96233,22.49305 -32.6306,29.19914 -8.92768,3.38856 -20.39469,4.18186 -29.49103,2.04025 -14.54879,-3.42534 -25.02227,-9.82474 -44.37837,-27.11562 -20.15451,-18.00411 -33.47218,-26.31226 -51.02912,-31.83422 -22.0832,-6.94556 -33.67481,-7.77336 -98.74729,-7.05191 -58.50221,0.64861 -71.15182,-0.0403 -96.72359,-5.26743 -32.86197,-6.71736 -51.43034,-16.57708 -74.01226,-39.30016 -11.80146,-11.87523 -25.8664,-30.00142 -34.4814,-44.43787 C 252.34233,140.33805 249.6138,136 249.44296,136 c -0.17084,0 1.18048,4.3875 3.00294,9.75 17.91544,52.71526 46.61164,91.05402 85.25239,113.89906 16.98298,10.04061 28.96988,14.28901 57.23486,20.28518 74.0616,15.71152 115.27818,32.10048 144.09651,57.29711 23.84983,20.85254 38.82445,42.99299 48.99255,72.43704 9.08455,26.30638 10.72725,57.17354 3.30161,62.03901 -5.28301,3.46156 -9.52292,-1.35794 -17.77724,-20.2074 C 562.28683,425.78738 552.63029,410.76658 538.72443,397.33395 515.45988,374.8611 484.66865,361.64954 444.5,356.90519 c -5.78538,-0.68332 -22.43313,-1.13896 -39.5,-1.08109 -26.48848,0.0898 -53.53742,-0.93203 -64.5,-2.43665 -3.02985,-0.41584 -3.6362,-0.286 -2.5,0.53536 2.62654,1.89875 16.7989,6.06255 41.5,12.1926 13.2,3.27583 28.95,7.56948 35,9.54145 11.79504,3.84454 31.65146,12.872 41.77912,18.99433 35.46437,21.43878 62.78539,52.33253 84.32215,95.34881 21.46392,42.8708 24.87529,77.7204 9.33992,95.4142 -4.1929,4.77545 -8.87123,7.74693 -15.94119,10.12517 -7.65828,2.57614 -23.41499,2.39566 -35.92321,-0.41149 -5.18276,-1.16314 -9.56385,-1.97415 -9.73575,-1.80225 -0.1719,0.1719 1.67978,3.54401 4.11485,7.49358 17.13915,27.79888 47.32695,54.51164 80.30505,71.06082 17.30158,8.68234 37.57732,16.36632 52.84102,20.02537 4.44727,1.06611 5.39915,1.76017 7.41799,5.40883 9.68198,17.49822 27.96336,41.35631 45.98005,60.00621 42.97115,44.48139 94.74804,74.52357 153.5,89.06434 18.63596,4.6123 29.6123,6.38045 56,9.02093 8.80543,0.88112 50.58072,-0.40525 61.5,-1.89374 z M 886.5,812.9347 C 819.66002,806.65789 759.65848,778.67154 712.99347,732.00653 632.04464,651.0577 608.84751,529.84828 654.08214,424.18367 c 13.73087,-32.07425 33.49318,-60.96321 59.33275,-86.73389 15.21915,-15.17857 25.25389,-23.4108 42.58511,-34.93569 35.30779,-23.47893 73.11346,-37.68958 117.5,-44.16668 16.7813,-2.44882 56.2187,-2.44882 73,0 63.5056,9.26705 117.0669,35.8007 160.5467,79.53301 67.6513,68.04409 95.2074,161.85349 75.3474,256.50539 -6.1769,29.43896 -22.0344,67.18941 -39.1135,93.11419 -45.2382,68.66813 -116.3944,113.21362 -198.14333,124.04264 -14.43288,1.91188 -45.29888,2.64464 -58.63727,1.39206 z M 945.46033,626.75559 C 963.90715,546.04617 979,479.78367 979,479.50559 979,479.22752 997.33909,479 1019.7535,479 h 40.7536 l 13.3577,24.05536 c 7.3468,13.23045 13.4933,23.91795 13.659,23.75 C 1087.922,526.40165 1124,424.28276 1124,423.55946 1124,423.25176 1027.475,423 909.5,423 791.525,423 695,423.14266 695,423.31702 c 0,0.17436 3.52445,10.18686 7.83211,22.25 4.30765,12.06314 12.52015,35.2943 18.25,51.62479 5.72984,16.3305 10.73211,29.3805 11.11616,29 0.38405,-0.38049 6.50741,-11.04181 13.60746,-23.69181 l 12.90918,-23 41.41171,-0.26079 41.4117,-0.26078 33.78929,148.76078 C 893.91171,709.55765 909.37305,777.175 909.68614,778 c 0.38654,1.01854 0.8365,0.53708 1.40188,-1.5 0.45795,-1.65 15.92549,-69.03498 34.37231,-149.74441 z"
       id="path26"
        />
    <path
       style="fill:#be001c"
       d="M 883,882.88175 C 813.13114,877.29251 747.5904,851.31623 692.5,807.37938 679.10286,796.69462 651.20241,768.95311 640.82625,756 c -8.63541,-10.78002 -19.58168,-26.01085 -24.96965,-34.74318 -3.5735,-5.7916 -3.80374,-5.95857 -12,-8.7026 -20.7862,-6.95901 -45.7449,-18.52331 -62.95725,-29.17043 -58.42561,-36.14061 -96.01256,-93.3115 -103.37976,-157.24375 l -0.61765,-5.35995 5.73541,6.19492 c 17.23775,18.61883 38.62528,27.27303 51.34222,20.77499 6.20198,-3.16906 8.2234,-6.33065 8.17342,-12.78355 -0.0966,-12.47121 -14.524,-30.1673 -36.55746,-44.83996 C 448.05788,478.4477 441.38078,475.4429 382.09268,452.54886 335.38164,434.51144 302.29862,417.93913 279.80747,401.31102 269.45235,393.6553 251.76548,375.50102 243.73404,364.28428 216.38113,326.08311 203.2544,281.08256 197.56228,206 l -0.56859,-7.5 2.33832,5.5 c 14.2687,33.56165 35.73444,63.48703 60.1174,83.80963 16.45564,13.71538 30.37351,21.41381 51.65514,28.57216 34.96791,11.76192 53.0362,10.09751 55.46791,-5.10956 0.95791,-5.99044 -1.66988,-10.71444 -7.96559,-14.31986 -2.80878,-1.60852 -12.08187,-5.7035 -20.60687,-9.09995 -18.92811,-7.54116 -25.16382,-10.57903 -35.53678,-17.31257 -27.75794,-18.01889 -46.69915,-44.66331 -69.79984,-98.18676 -3.59556,-8.3308 -8.35284,-18.75765 -10.57172,-23.17078 C 194.40803,94.122299 151.49653,57.986473 91.75,39.421451 88.5875,38.438769 86,37.325595 86,36.947731 c 0,-1.509256 34.56734,-7.880139 57.51665,-10.600521 20.4708,-2.426583 65.43344,-2.422983 83.98335,0.0067 48.38389,6.337429 89.53024,21.098358 125.21122,44.918536 23.41638,15.632483 34.07137,25.284348 70.16781,63.561754 15.91861,16.88042 28.77058,28.11426 43.14103,37.70936 17.12322,11.43312 30.24861,15.78023 47.97994,15.89088 12.97984,0.081 18.94724,-1.51311 24.13393,-6.44709 C 541.71943,178.57654 542,177.90529 542,172.73771 542,156.52439 522.28084,134.96832 496.32034,122.80282 478.87293,114.62669 452.7181,107.64594 429.5,104.9684 c -5.5,-0.63426 -10.10616,-1.25529 -10.23591,-1.38006 -0.12975,-0.12476 3.47025,-2.28265 8,-4.795313 53.3327,-29.583705 123.15309,-33.56826 173.2033,-9.884476 15.36453,7.270503 34.82897,21.169939 70.03261,50.009849 32.22061,26.39612 45.50952,34.64945 62.90996,39.07142 14.28918,3.6313 33.63532,2.23545 42.17613,-3.04306 6.78208,-4.19155 8.68747,-15.39154 3.9839,-23.41758 -4.34914,-7.42124 -12.92855,-12.9909 -25.18117,-16.34734 l -6.75324,-1.84996 5.93221,-1.11295 c 16.59441,-3.11329 23.27459,-3.6649 44.43221,-3.66899 16.57565,-0.003 25.528,0.46279 34,1.76979 45.13838,6.96363 82.6223,23.96765 116.5,52.84846 l 11,9.37752 11,1.84926 c 111.9028,18.81247 210.8688,96.35497 257.3046,201.605 13.7014,31.05527 22.1209,61.79893 27.386,100 2.0517,14.88542 1.7116,69.15021 -0.5321,84.91215 -5.9447,41.76201 -16.3619,75.73834 -34.0597,111.08785 -36.5162,72.93736 -99.516,132.28591 -174.0988,164.00856 -51.20934,21.7811 -108.80883,31.24827 -163.5,26.87319 z m 60.64136,-28.41334 C 1032.8815,845.09686 1112.7585,799.6707 1167.1122,727.38018 1209.3231,671.23969 1231,605.84159 1231,534.6344 1231,513.68227 1230.0633,501.56856 1226.9299,482 1208.9342,369.61468 1129.0734,273.14541 1021,233.24358 c -21.07108,-7.77966 -49.23528,-14.74914 -68,-16.82719 -6.37741,-0.70625 -6.67917,-0.87738 -16,-9.07372 -34.61555,-30.43947 -70.1763,-47.14247 -108.25,-50.84538 -3.7125,-0.36106 -6.75,-0.39449 -6.75,-0.0743 0,0.32021 1.77371,2.18463 3.94157,4.14317 15.32765,13.84761 8.22487,35.80025 -15.5923,48.1913 -16.50477,8.58672 -36.28452,12.46086 -63.84927,12.50577 -34.30284,0.0559 -67.16452,-7.05942 -96.37883,-20.86823 C 628.71086,190.27495 615.2508,180.39656 599.44787,163.20569 583.63146,146.00016 571.6452,135.63112 558.5,127.78263 c -6.90605,-4.12333 -16.42622,-8.22954 -21.5,-9.27332 -4.03595,-0.83027 -3.87265,-0.62359 4.5,5.69533 11.91679,8.99371 19.46718,19.15711 28.70946,38.64513 16.03079,33.80209 22.95059,46.91091 28.04826,53.13445 14.16076,17.28829 37.30363,30.49639 63.74228,36.379 5.89336,1.31127 13.30721,2.33057 30.46433,4.18841 15.00939,1.62527 24.03174,6.93145 23.83094,14.01532 -0.29418,10.37822 -21.77742,26.23633 -40.76677,30.0925 -6.79654,1.38017 -9.15487,1.43863 -16,0.39663 -15.97321,-2.43152 -29.73246,-10.12442 -47.36119,-26.47999 -20.56485,-19.07964 -35.19238,-28.08456 -55.55537,-34.2007 -19.02148,-5.71321 -21.52131,-5.87251 -92.61194,-5.90196 -56.11167,-0.0232 -67.3266,-0.27267 -78.24374,-1.74027 -45.60929,-6.1313 -68.72025,-16.31349 -94.11036,-41.46297 -14.13055,-13.99664 -30.30471,-35.2154 -39.64425,-52.009 -1.29655,-2.33135 -2.5489,-4.04727 -2.78301,-3.81316 -0.23411,0.2341 1.0407,4.84157 2.83291,10.23881 18.7458,56.45294 51.8639,97.84694 95.44845,119.30007 15.93822,7.84509 23.83053,10.37093 48.5,15.52182 95.6278,19.96671 141.73802,44.17232 173.12696,90.88319 16.00728,23.82092 26.06729,54.73152 26.23432,80.60808 0.10184,15.77704 -1.32538,20 -6.75936,20 -4.53622,0 -7.04189,-3.22357 -13.06504,-16.80832 C 562.68736,426.21061 553.78377,411.79701 540.5,398.47217 523.17534,381.09394 497.66588,367.43368 470.38304,360.9247 452.51221,356.66118 442.85084,355.90989 394,354.98501 c -26.125,-0.49462 -49.95068,-1.35541 -52.94595,-1.91287 -2.99528,-0.55746 -5.62459,-0.83493 -5.84293,-0.61659 -1.62594,1.62593 15.82983,7.11339 46.28888,14.55155 37.59645,9.18113 58.43422,17.37047 80.18052,31.51129 43.72417,28.43223 79.40287,78.17161 93.95482,130.98161 3.08786,11.20606 4.27586,30.45256 2.38189,38.5884 -2.95763,12.70496 -10.37797,21.94708 -20.93788,26.07838 -8.68624,3.39827 -25.44916,3.63375 -38.82935,0.54547 -5.86218,-1.35305 -10.25,-1.94079 -10.25,-1.37296 0,1.59121 8.49651,14.77768 13.71186,21.28063 10.18772,12.70292 15.16939,17.93938 25.78814,27.1071 25.43501,21.95934 55.74853,38.23832 89.60244,48.11833 l 13.33894,3.89287 6.4005,10.38089 c 51.43121,83.4156 140.56891,139.66699 238.16639,150.29769 17.39082,1.89427 50.84683,1.91943 68.63309,0.0516 z M 896.5,813.33383 C 866.3384,811.48992 837.05326,805.38936 810.95803,795.51408 787.54155,786.65252 756.57478,768.96219 736.5,752.97855 719.33125,739.3087 700.23304,719.54771 686.74806,701.5 c -45.7373,-61.2128 -64.18808,-138.27448 -51.23774,-214 4.69634,-27.46126 11.80194,-49.10955 24.94541,-76 C 698.33953,333.99288 771.53121,277.87119 856,261.56117 c 20.51661,-3.96154 31.37394,-4.95398 54,-4.93601 32.5008,0.0258 57.90306,4.02465 87.30793,13.74407 71.22717,23.54328 129.24477,74.00359 162.17297,141.04865 13.1519,26.77874 20.2994,48.52589 25.0054,76.08212 12.7514,74.6662 -4.976,150.62238 -49.3618,211.5 -8.4031,11.52537 -15.2377,19.42685 -27.9603,32.32531 -42.1033,42.68498 -96.5055,70.30227 -156.01282,79.19995 -17.53153,2.62136 -39.36234,3.74326 -54.65138,2.80857 z M 945.07574,629.25 979.39294,479 l 40.55356,0.0259 40.5535,0.0259 6.3921,11.72413 c 11.7569,21.5638 20.2988,36.36658 20.7341,35.93129 C 1088.1869,526.14641 1124,424.80681 1124,423.78082 1124,423.35137 1027.4269,423 909.39301,423 c -171.25882,0 -214.51613,0.25249 -214.15718,1.25 0.24739,0.6875 8.48643,24.0875 18.30897,52 9.82254,27.9125 18.10577,50.73495 18.40718,50.71656 0.30141,-0.0184 6.5544,-10.81839 13.89554,-24 L 759.19503,479 l 41.15249,0.008 41.15248,0.008 33.43365,147.24191 c 34.60676,152.40825 35.0108,154.15537 35.51851,153.58568 0.16851,-0.18907 15.74912,-67.95627 34.62358,-150.59377 z"
       id="path24"
        />
    <path
       style="fill:#002c63"
       d="M 883,882.88175 C 813.13114,877.29251 747.5904,851.31623 692.5,807.37938 679.10286,796.69462 651.20241,768.95311 640.82625,756 c -8.63541,-10.78002 -19.58168,-26.01085 -24.96965,-34.74318 -3.5735,-5.7916 -3.80374,-5.95857 -12,-8.7026 -20.7862,-6.95901 -45.7449,-18.52331 -62.95725,-29.17043 -58.42561,-36.14061 -96.01256,-93.3115 -103.37976,-157.24375 l -0.61765,-5.35995 5.73541,6.19492 c 17.23775,18.61883 38.62528,27.27303 51.34222,20.77499 6.20198,-3.16906 8.2234,-6.33065 8.17342,-12.78355 -0.0966,-12.47121 -14.524,-30.1673 -36.55746,-44.83996 C 448.05788,478.4477 441.38078,475.4429 382.09268,452.54886 335.38164,434.51144 302.29862,417.93913 279.80747,401.31102 269.45235,393.6553 251.76548,375.50102 243.73404,364.28428 216.38113,326.08311 203.2544,281.08256 197.56228,206 l -0.56859,-7.5 2.33832,5.5 c 14.2687,33.56165 35.73444,63.48703 60.1174,83.80963 16.45564,13.71538 30.37351,21.41381 51.65514,28.57216 34.96791,11.76192 53.0362,10.09751 55.46791,-5.10956 0.95791,-5.99044 -1.66988,-10.71444 -7.96559,-14.31986 -2.80878,-1.60852 -12.08187,-5.7035 -20.60687,-9.09995 -18.92811,-7.54116 -25.16382,-10.57903 -35.53678,-17.31257 -27.75794,-18.01889 -46.69915,-44.66331 -69.79984,-98.18676 -3.59556,-8.3308 -8.35284,-18.75765 -10.57172,-23.17078 C 194.40803,94.122299 151.49653,57.986473 91.75,39.421451 88.5875,38.438769 86,37.325595 86,36.947731 c 0,-1.509256 34.56734,-7.880139 57.51665,-10.600521 20.4708,-2.426583 65.43344,-2.422983 83.98335,0.0067 48.38389,6.337429 89.53024,21.098358 125.21122,44.918536 23.41638,15.632483 34.07137,25.284348 70.16781,63.561754 15.91861,16.88042 28.77058,28.11426 43.14103,37.70936 17.12322,11.43312 30.24861,15.78023 47.97994,15.89088 12.97984,0.081 18.94724,-1.51311 24.13393,-6.44709 C 541.71943,178.57654 542,177.90529 542,172.73771 542,156.52439 522.28084,134.96832 496.32034,122.80282 478.87293,114.62669 452.7181,107.64594 429.5,104.9684 c -5.5,-0.63426 -10.10616,-1.25529 -10.23591,-1.38006 -0.12975,-0.12476 3.47025,-2.28265 8,-4.795313 53.3327,-29.583705 123.15309,-33.56826 173.2033,-9.884476 15.36453,7.270503 34.82897,21.169939 70.03261,50.009849 32.22061,26.39612 45.50952,34.64945 62.90996,39.07142 14.28918,3.6313 33.63532,2.23545 42.17613,-3.04306 6.78208,-4.19155 8.68747,-15.39154 3.9839,-23.41758 -4.34914,-7.42124 -12.92855,-12.9909 -25.18117,-16.34734 l -6.75324,-1.84996 5.93221,-1.11295 c 16.59441,-3.11329 23.27459,-3.6649 44.43221,-3.66899 16.57565,-0.003 25.528,0.46279 34,1.76979 45.13838,6.96363 82.6223,23.96765 116.5,52.84846 l 11,9.37752 11,1.84926 c 111.9028,18.81247 210.8688,96.35497 257.3046,201.605 13.7014,31.05527 22.1209,61.79893 27.386,100 2.0517,14.88542 1.7116,69.15021 -0.5321,84.91215 -5.9447,41.76201 -16.3619,75.73834 -34.0597,111.08785 -36.5162,72.93736 -99.516,132.28591 -174.0988,164.00856 -51.20934,21.7811 -108.80883,31.24827 -163.5,26.87319 z m 60.64136,-28.41334 C 1032.8815,845.09686 1112.7585,799.6707 1167.1122,727.38018 1209.3231,671.23969 1231,605.84159 1231,534.6344 1231,513.68227 1230.0633,501.56856 1226.9299,482 1208.9342,369.61468 1129.0734,273.14541 1021,233.24358 c -21.07108,-7.77966 -49.23528,-14.74914 -68,-16.82719 -6.37741,-0.70625 -6.67917,-0.87738 -16,-9.07372 -34.61555,-30.43947 -70.1763,-47.14247 -108.25,-50.84538 -3.7125,-0.36106 -6.75,-0.39449 -6.75,-0.0743 0,0.32021 1.77371,2.18463 3.94157,4.14317 15.32765,13.84761 8.22487,35.80025 -15.5923,48.1913 -16.50477,8.58672 -36.28452,12.46086 -63.84927,12.50577 -34.30284,0.0559 -67.16452,-7.05942 -96.37883,-20.86823 C 628.71086,190.27495 615.2508,180.39656 599.44787,163.20569 583.63146,146.00016 571.6452,135.63112 558.5,127.78263 c -6.90605,-4.12333 -16.42622,-8.22954 -21.5,-9.27332 -4.03595,-0.83027 -3.87265,-0.62359 4.5,5.69533 11.91679,8.99371 19.46718,19.15711 28.70946,38.64513 16.03079,33.80209 22.95059,46.91091 28.04826,53.13445 14.16076,17.28829 37.30363,30.49639 63.74228,36.379 5.89336,1.31127 13.30721,2.33057 30.46433,4.18841 15.00939,1.62527 24.03174,6.93145 23.83094,14.01532 -0.29418,10.37822 -21.77742,26.23633 -40.76677,30.0925 -6.79654,1.38017 -9.15487,1.43863 -16,0.39663 -15.97321,-2.43152 -29.73246,-10.12442 -47.36119,-26.47999 -20.56485,-19.07964 -35.19238,-28.08456 -55.55537,-34.2007 -19.02148,-5.71321 -21.52131,-5.87251 -92.61194,-5.90196 -56.11167,-0.0232 -67.3266,-0.27267 -78.24374,-1.74027 -45.60929,-6.1313 -68.72025,-16.31349 -94.11036,-41.46297 -14.13055,-13.99664 -30.30471,-35.2154 -39.64425,-52.009 -1.29655,-2.33135 -2.5489,-4.04727 -2.78301,-3.81316 -0.23411,0.2341 1.0407,4.84157 2.83291,10.23881 18.7458,56.45294 51.8639,97.84694 95.44845,119.30007 15.93822,7.84509 23.83053,10.37093 48.5,15.52182 95.6278,19.96671 141.73802,44.17232 173.12696,90.88319 16.00728,23.82092 26.06729,54.73152 26.23432,80.60808 0.10184,15.77704 -1.32538,20 -6.75936,20 -4.53622,0 -7.04189,-3.22357 -13.06504,-16.80832 C 562.68736,426.21061 553.78377,411.79701 540.5,398.47217 523.17534,381.09394 497.66588,367.43368 470.38304,360.9247 452.51221,356.66118 442.85084,355.90989 394,354.98501 c -26.125,-0.49462 -49.95068,-1.35541 -52.94595,-1.91287 -2.99528,-0.55746 -5.62459,-0.83493 -5.84293,-0.61659 -1.62594,1.62593 15.82983,7.11339 46.28888,14.55155 37.59645,9.18113 58.43422,17.37047 80.18052,31.51129 43.72417,28.43223 79.40287,78.17161 93.95482,130.98161 3.08786,11.20606 4.27586,30.45256 2.38189,38.5884 -2.95763,12.70496 -10.37797,21.94708 -20.93788,26.07838 -8.68624,3.39827 -25.44916,3.63375 -38.82935,0.54547 -5.86218,-1.35305 -10.25,-1.94079 -10.25,-1.37296 0,1.59121 8.49651,14.77768 13.71186,21.28063 10.18772,12.70292 15.16939,17.93938 25.78814,27.1071 25.43501,21.95934 55.74853,38.23832 89.60244,48.11833 l 13.33894,3.89287 6.4005,10.38089 c 51.43121,83.4156 140.56891,139.66699 238.16639,150.29769 17.39082,1.89427 50.84683,1.91943 68.63309,0.0516 z M 896.5,813.33383 C 866.3384,811.48992 837.05326,805.38936 810.95803,795.51408 787.54155,786.65252 756.57478,768.96219 736.5,752.97855 719.33125,739.3087 700.23304,719.54771 686.74806,701.5 c -45.7373,-61.2128 -64.18808,-138.27448 -51.23774,-214 4.69634,-27.46126 11.80194,-49.10955 24.94541,-76 C 698.33953,333.99288 771.53121,277.87119 856,261.56117 c 20.51661,-3.96154 31.37394,-4.95398 54,-4.93601 32.5008,0.0258 57.90306,4.02465 87.30793,13.74407 71.22717,23.54328 129.24477,74.00359 162.17297,141.04865 13.1519,26.77874 20.2994,48.52589 25.0054,76.08212 12.7514,74.6662 -4.976,150.62238 -49.3618,211.5 -8.4031,11.52537 -15.2377,19.42685 -27.9603,32.32531 -42.1033,42.68498 -96.5055,70.30227 -156.01282,79.19995 -17.53153,2.62136 -39.36234,3.74326 -54.65138,2.80857 z M 945.07574,629.25 979.39294,479 l 40.55356,0.0259 40.5535,0.0259 6.3921,11.72413 c 11.7569,21.5638 20.2988,36.36658 20.7341,35.93129 C 1088.1869,526.14641 1124,424.80681 1124,423.78082 1124,423.35137 1027.4269,423 909.39301,423 c -171.25882,0 -214.51613,0.25249 -214.15718,1.25 0.24739,0.6875 8.48643,24.0875 18.30897,52 9.82254,27.9125 18.10577,50.73495 18.40718,50.71656 0.30141,-0.0184 6.5544,-10.81839 13.89554,-24 L 759.19503,479 l 41.15249,0.008 41.15248,0.008 33.43365,147.24191 c 34.60676,152.40825 35.0108,154.15537 35.51851,153.58568 0.16851,-0.18907 15.74912,-67.95627 34.62358,-150.59377 z m -187.51148,44.4267 c 1.45986,-16.51111 2.16155,-20.9817 3.38844,-21.58825 0.85101,-0.42073 12.00822,-2.97525 24.79378,-5.67671 12.78557,-2.70146 23.23855,-5.13674 23.22886,-5.41174 -0.01,-0.275 -10.35811,-4.96174 -22.99648,-10.41498 -21.60167,-9.32075 -22.97502,-10.06991 -22.91486,-12.5 0.0352,-1.42176 1.08949,-12.71002 2.34285,-25.08502 1.25336,-12.375 2.16925,-22.6428 2.03532,-22.81734 -0.13394,-0.17454 -7.78182,8.24033 -16.9953,18.69972 l -16.75177,19.01706 -3.09755,-1.33303 c -1.70365,-0.73318 -12.01961,-5.25099 -22.92435,-10.0396 -10.90474,-4.7886 -19.97968,-8.55361 -20.16653,-8.36668 -0.18686,0.18693 5.24306,9.78987 12.06648,21.33987 6.82342,11.55 12.39213,21.45 12.3749,22 -0.0172,0.55 -7.43084,9.29424 -16.47471,19.43164 -9.04386,10.13741 -16.31099,18.56404 -16.14917,18.72586 0.16181,0.16182 11.23258,-2.16992 24.60171,-5.18164 C 717.295,661.46413 728.3568,659 728.50765,659 c 0.15085,0 6.06084,9.94161 13.13331,22.09246 l 12.85904,22.09247 0.61157,-4.34247 c 0.33636,-2.38835 1.44007,-13.71294 2.45269,-25.16576 z m 323.85794,2.5733 c 5.3556,-9.4875 10.039,-17.24566 10.4076,-17.24036 0.3686,0.005 11.431,2.25701 24.5831,5.00381 13.152,2.7468 24.0549,4.85212 24.2285,4.67851 0.1736,-0.17362 -3.9983,-5.01284 -9.271,-10.75382 -5.2727,-5.74098 -12.938,-14.11728 -17.0341,-18.61401 l -7.4475,-8.17588 12.487,-21.80942 c 6.8678,-11.99519 12.3492,-21.94716 12.1809,-22.1155 -0.1684,-0.16834 -10.15,4.17951 -22.1814,9.66189 -12.0314,5.48238 -22.3854,10.1135 -23.0088,10.29137 -0.6235,0.17788 -8.836,-8.12859 -18.25,-18.45882 -9.7108,-10.65582 -17.0969,-18.01112 -17.0711,-17 0.025,0.98023 1.29,12.44319 2.8112,25.47326 l 2.7658,23.69103 -22.8033,10.30897 c -12.5418,5.66993 -22.8068,10.54563 -22.8112,10.83488 0,0.28924 11.0076,2.70957 24.4709,5.3785 l 24.4788,4.85259 0.5136,3.1215 c 0.2825,1.71682 1.4205,11.6715 2.5288,22.1215 1.1083,10.45 2.2704,20.53326 2.5824,22.40723 l 0.5672,3.40724 2.7677,-4.90724 c 1.5222,-2.69897 7.1494,-12.66973 12.5049,-22.15723 z M 890.13657,380.81475 C 900.38669,373.21664 909.30659,367 909.95858,367 c 0.89051,0 32.26794,21.75164 40.74331,28.24431 0.66104,0.5064 -2.3807,-9.80391 -6.75942,-22.91179 -4.37871,-13.10789 -7.7688,-24.33608 -7.53353,-24.95155 0.23528,-0.61547 9.27171,-7.59047 20.08096,-15.5 L 976.14308,317.5 l -25.3423,-0.26642 -25.34231,-0.26642 -8.08397,-24.23358 -8.08398,-24.23358 -5.69591,18 c -3.13276,9.9 -6.68563,20.925 -7.89527,24.5 l -2.19934,6.5 -25.2032,0.5 -25.20321,0.5 20.45321,14.46165 c 11.24926,7.9539 20.45005,14.7039 20.4462,15 -0.004,0.29609 -3.37885,11.1041 -7.5,24.01779 -4.12115,12.91369 -7.493,23.62774 -7.493,23.80901 0,0.61335 2.4622,-1.13094 21.13657,-14.9737 z M 495.98819,477.4153 c -2.67931,-10.52723 -11.48277,-28.29436 -18.89103,-38.12587 -13.45918,-17.86169 -33.91414,-34.13002 -56.1706,-44.67387 -15.83407,-7.50128 -29.19914,-11.84554 -54.07741,-17.5776 C 355.10712,374.33254 339.65,370.24388 332.5,367.95204 285.836,352.99453 250.48616,327.73161 235.52606,298.6492 c -4.03418,-7.84243 -4.43203,-6.64601 -2.01935,6.0726 7.57484,39.93132 34.42571,74.12317 72.86136,92.78152 10.83874,5.2616 24.32297,9.77918 46.13193,15.45543 61.31266,15.95792 88.68,26.18366 112.0472,41.86613 10.48444,7.03644 22.27286,17.66477 28.39619,25.60175 2.38649,3.09333 4.50113,5.46218 4.69921,5.26411 0.19807,-0.19808 -0.54641,-3.92202 -1.65441,-8.27544 z M 437.12878,214.93603 c 4.74583,-0.58208 11.94583,-1.84616 16,-2.80906 l 7.37122,-1.75073 -8.34793,-1.25715 C 434.95198,206.52885 413.81701,199.19738 398.67586,190.56882 373.16411,176.03032 355.91988,158.46087 338.55451,129.3136 327.31513,110.44861 318.81801,99.006288 306.58328,86.260739 292.88966,71.99539 281.81808,63.642371 266.5,56.019664 246.3067,45.970912 228.79879,42 204.68673,42 c -16.0146,0 -34.59478,1.801644 -31.16227,3.021678 1.08655,0.386195 5.0541,1.437689 8.8168,2.336651 18.50062,4.420073 37.07971,15.946075 55.73903,34.579107 14.9682,14.947112 23.71902,26.453904 37.15651,48.858594 12.29287,20.49622 18.75856,29.24059 29.74257,40.2246 23.47704,23.47704 52.78707,38.12357 86.94909,43.44937 10.56554,1.64715 33.63147,1.88497 45.20032,0.46603 z M 689.28837,177.55669 C 672.87203,169.71092 656.98737,157.86278 625.5,129.97789 616.7,122.1847 606.83099,113.7988 603.56887,111.34255 570.42571,86.38709 522.56916,78.409687 485.65041,91.686241 c -12.18991,4.383682 -12.02839,4.972071 1.23511,4.499178 25.74458,-0.91789 49.98961,5.269531 71.59623,18.271621 4.96004,2.98478 17.56825,12.27529 28.01825,20.6456 28.928,23.17093 42.08208,31.26147 62.08441,38.18561 13.67398,4.73348 32.25283,8.23521 45.41559,8.55991 l 4.5,0.111 z"
       id="path22"
        />
  </g>
</svg>
