<?xml version="1.0"?>
<svg xmlns="http://www.w3.org/2000/svg" id="Layer_1" data-name="Layer 1" viewBox="0 0 512 512"><title>Choose users pick</title><path d="M107.73,39.68a9.43,9.43,0,1,1-9.43,9.43A9.436,9.436,0,0,1,107.73,39.68Z" style="fill:#6fe3ff"/><path d="M371.22,143.65l-38.97-16.47a39.489,39.489,0,0,0-12.6-21.61l-2.32-2.03,23.66-4.35L456,142.94a34.929,34.929,0,0,1-46.18,17.02Z" style="fill:#edb288"/><path d="M371.22,143.65l58.89,73.59a41.229,41.229,0,0,1-50.38-9.65l-35.3-41.05-6.2-7.1-5.8-31.38c-.05-.29-.11-.59-.18-.88Z" style="fill:#edb288"/><path d="M425.13,49.11a34.9,34.9,0,0,1-28.81,39.9L340.99,99.19l-23.66,4.35L289.09,78.76Z" style="fill:#edb288"/><path d="M385.21,500.15h-220a110,110,0,0,1,220,0Z" style="fill:#e48e66"/><path d="M338.23,159.44l19.28,104.24a59.165,59.165,0,0,1-42.4-43.82l-11.52-49.72a40.765,40.765,0,0,0-39.69-31.58c-.77,0-1.54.03-2.32.07a40.736,40.736,0,0,0-33.45,21.1q-3.495,17.97-5.55,36.18l-4.3,38.15a47.953,47.953,0,0,1-44.11,42.45l8.64-88.72a59.275,59.275,0,0,1-49.66-28.7l-.05-.07-18.68-2.29-1.85-.37,19.91-99.59.88.18h25.42l2.35-.76a49.388,49.388,0,0,1,15.04-2.36,48.4,48.4,0,0,1,8.9.82l87.07,16.09a34.163,34.163,0,0,1,16.95,8.02l28.24,24.78,2.32,2.03a39.489,39.489,0,0,1,12.6,21.61c.07.29.13.59.18.88Z" style="fill:#f7caa5"/><path d="M338.12,294.04a64.512,64.512,0,0,1-31.65,55.61,64.667,64.667,0,1,1,31.65-55.61Z" style="fill:#e48e66"/><path d="M139.44,21.95l-6.96,34.82-19.91,99.59-6.03,30.16L56,176.42,88.9,11.85ZM117.17,49.11a9.435,9.435,0,1,0-9.44,9.43A9.436,9.436,0,0,0,117.17,49.11Z" style="fill:#f8ec7d"/></svg>
