<?xml version="1.0"?>
<svg xmlns="http://www.w3.org/2000/svg" id="Layer_1" viewBox="0 0 512 512" ><path d="M371.22,143.65l-38.97-16.47a39.489,39.489,0,0,0-12.6-21.61l-2.32-2.03,23.66-4.35L456,142.94a34.929,34.929,0,0,1-46.18,17.02Z" style="fill:#edb288"/><path d="M371.22,143.65l58.89,73.59a41.229,41.229,0,0,1-50.38-9.65l-35.3-41.05-6.2-7.1-5.8-31.38c-.05-.29-.11-.59-.18-.88Z" style="fill:#edb288"/><path d="M425.13,49.11a34.9,34.9,0,0,1-28.81,39.9L340.99,99.19l-23.66,4.35L289.09,78.76Z" style="fill:#edb288"/><path d="M385.21,500.15h-220a110,110,0,0,1,220,0Z" style="fill:#e48e66"/><path d="M338.23,159.44l19.28,104.24a59.165,59.165,0,0,1-42.4-43.82l-11.52-49.72a40.765,40.765,0,0,0-39.69-31.58c-.77,0-1.54.03-2.32.07a40.736,40.736,0,0,0-33.45,21.1q-3.495,17.97-5.55,36.18l-4.3,38.15a47.953,47.953,0,0,1-44.11,42.45l8.64-88.72a59.275,59.275,0,0,1-49.66-28.7l-.05-.07-18.68-2.29-1.85-.37,19.91-99.59.88.18h25.42l2.35-.76a49.388,49.388,0,0,1,15.04-2.36,48.4,48.4,0,0,1,8.9.82l87.07,16.09a34.163,34.163,0,0,1,16.95,8.02l28.24,24.78,2.32,2.03a39.489,39.489,0,0,1,12.6,21.61c.07.29.13.59.18.88Z" style="fill:#f7caa5"/><path d="M338.12,294.04a64.512,64.512,0,0,1-31.65,55.61,64.667,64.667,0,1,1,31.65-55.61Z" style="fill:#e48e66"/><path d="M139.44,21.95l-6.96,34.82-19.91,99.59-6.03,30.16L56,176.42,88.9,11.85ZM117.17,49.11a9.435,9.435,0,1,0-9.44,9.43A9.436,9.436,0,0,0,117.17,49.11Z" style="fill:#f8ec7d"/><path d="M107.73,39.68a9.43,9.43,0,1,1-9.43,9.43A9.436,9.436,0,0,1,107.73,39.68Z" style="fill:#6fe3ff"/><path d="M54.824,182.3l50.54,10.1a6,6,0,0,0,7.06-4.708l4.911-24.564,12.22,1.5a64.817,64.817,0,0,0,46.684,28.722L168.2,275.928a6,6,0,0,0,5.972,6.582c.146,0,.294-.006.442-.016a54.032,54.032,0,0,0,33.311-14.822,70.659,70.659,0,1,0,134.765,40.6,71.164,71.164,0,0,0,1.432-14.231,70.205,70.205,0,0,0-8.868-34.222,65.223,65.223,0,0,0,20.712,9.66,6,6,0,0,0,7.446-6.889l-15.262-82.523L375.182,211.5a47.23,47.23,0,0,0,57.71,11.055,6,6,0,0,0,1.9-9.066l-44.089-55.1,16.7,7.058a40.547,40.547,0,0,0,16.9,3.666,41.125,41.125,0,0,0,37.127-23.641,6,6,0,0,0-3.3-8.147l-94.965-36.125,34.188-6.287a40.8,40.8,0,0,0,34.2-40.34,41.226,41.226,0,0,0-.5-6.4,6,6,0,0,0-7.2-4.928L290.609,72.288a40.1,40.1,0,0,0-17.434-7.458l-87-16.078a54.548,54.548,0,0,0-10-.922,55.371,55.371,0,0,0-16.887,2.651l-1.449.469H139.762l5.562-27.824a6,6,0,0,0-4.708-7.06l-50.54-10.1a6.006,6.006,0,0,0-7.059,4.708l-32.9,164.57a6,6,0,0,0,4.708,7.06ZM330.932,305.868a58.734,58.734,0,1,1,1.188-11.828A58.785,58.785,0,0,1,330.932,305.868Zm-109.2-59.893a53.7,53.7,0,0,0,2.512-11.243l4.3-38.149c1.312-11.621,3.093-23.308,5.293-34.755a34.738,34.738,0,0,1,28.053-17.206c.676-.035,1.344-.062,2.012-.062A34.586,34.586,0,0,1,297.745,171.5l11.52,49.718a65.315,65.315,0,0,0,5.92,15.849,70.492,70.492,0,0,0-93.455,8.913Zm198.636-31.308a35.21,35.21,0,0,1-36.087-10.989l-35.33-41.084-5.116-5.861-3.64-19.684,27.288,11.532Zm26.765-68.682A29.1,29.1,0,0,1,424.31,157.12a28.637,28.637,0,0,1-11.994-2.616c-.052-.025-.106-.048-.161-.071L337.34,122.816a45.921,45.921,0,0,0-7.8-15.424l10.879-2ZM395.337,83.091l-.1.018-76.126,14L301.985,82.091,419.5,56.478A28.836,28.836,0,0,1,395.337,83.091ZM158.78,62.95a6,6,0,0,0,1.847-.291l2.33-.754a43.211,43.211,0,0,1,21.022-1.355l87.07,16.09.112.02a28.134,28.134,0,0,1,13.972,6.61l28.247,24.786,2.313,2.024a33.706,33.706,0,0,1,10.684,18.328q.019.093.042.186c.038.158.07.323.11.557L349.7,254.426a53.05,53.05,0,0,1-28.741-35.921L309.436,168.79A46.531,46.531,0,0,0,263.9,132.56c-.987,0-1.922.042-2.653.079a46.739,46.739,0,0,0-38.379,24.208,6,6,0,0,0-.628,1.737c-2.345,12.062-4.237,24.4-5.622,36.654l-4.3,38.151A41.95,41.95,0,0,1,180.9,269.364l7.886-80.992a6,6,0,0,0-5.856-6.581A52.983,52.983,0,0,1,138.292,156c-.09-.149-.237-.365-.34-.506a6,6,0,0,0-4.122-2.427l-14.136-1.733L137.363,62.95ZM93.607,18.91l38.774,7.748-30.548,152.8L63.06,171.712Z" style="fill:#63316d"/><path d="M123.17,49.11a15.435,15.435,0,1,0-15.44,15.43A15.452,15.452,0,0,0,123.17,49.11Zm-18.87,0a3.435,3.435,0,1,1,3.43,3.43A3.434,3.434,0,0,1,104.3,49.11Z" style="fill:#63316d"/><path d="M275.21,384.15a116.132,116.132,0,0,0-116,116,6,6,0,0,0,6,6h220a6,6,0,0,0,6-6A116.132,116.132,0,0,0,275.21,384.15Zm-103.829,110a104,104,0,0,1,207.658,0Z" style="fill:#63316d"/></svg>
